<?xml version="1.0" encoding="utf-8" ?>
<svg xmlns="http://www.w3.org/2000/svg" xmlns:xlink="http://www.w3.org/1999/xlink" width="1311" height="1278">
	<path transform="scale(4.13565 4.13592)" d="M186.24 178.006C188.041 178.156 190.277 178.864 191.816 179.798C194.245 181.271 195.869 183.439 196.532 186.208C197.221 189.089 196.959 192.146 195.374 194.69C193.416 197.834 189.681 200.039 186.133 200.862C183.755 201.414 181.199 201.359 178.772 201.303C169.058 201.077 161.336 197.952 153.214 192.851C144.312 198.697 133.697 202.382 122.9 200.951C118.995 200.434 114.718 198.72 112.271 195.5C110.36 192.985 109.879 190.145 110.269 187.078C110.586 185.858 110.892 184.6 111.496 183.484C113.403 179.964 116.734 178.979 120.325 177.94C119.319 178.595 118.262 179.246 117.472 180.165C115.791 182.119 115.981 184.387 116.164 186.784C117.304 188.55 118.651 190.085 120.674 190.833C127.453 193.337 134.378 185.495 140.113 182.824C145.493 180.319 148.271 180.766 153.653 182.712C155.729 182.05 157.892 181.233 160.094 181.222C169.465 181.174 176.349 192.755 185.115 191.34C187.861 190.897 189.398 189.32 190.945 187.163C191.05 185.609 190.984 184.036 190.966 182.48C189.66 180.434 187.278 179.743 186.24 178.006Z"/>
	<path transform="scale(4.13565 4.13592)" d="M186.632 212.093C188.176 211.984 189.861 212.206 191.332 212.68Q191.901 212.862 192.45 213.1Q192.998 213.338 193.52 213.629Q194.041 213.921 194.531 214.263Q195.021 214.605 195.474 214.995Q195.928 215.384 196.34 215.817Q196.752 216.25 197.119 216.722Q197.485 217.194 197.803 217.7Q198.121 218.207 198.386 218.742C201.208 224.42 199.42 229.416 197.528 234.976C200.1 232.88 201.433 230.425 203.252 227.745C204.712 225.594 206.477 223.598 209.176 223.126C210.032 222.977 210.645 223.081 211.358 223.576C211.73 224.057 211.92 224.473 211.969 225.088C212.408 230.616 201.567 239.109 198.355 243.085C196.628 245.223 193.87 249.501 194.384 252.396C194.514 253.124 194.728 253.285 195.29 253.678C200.194 254.459 205.46 246.054 208.266 242.885C209.51 241.48 210.978 240.141 212.52 239.07C217.401 235.678 221.523 237.787 226.822 238.701C224.894 240.945 223.018 243.214 221.491 245.758C220.77 246.96 219.87 248.524 220.227 249.969C220.638 250.425 220.896 250.614 221.534 250.676C222.719 250.79 224.14 249.85 225.052 249.201C226.765 247.984 228.259 246.447 229.554 244.798C230.734 243.296 237.749 232.268 237.933 231.175C237.807 230.993 237.728 230.793 237.521 230.699C235.113 229.609 231.617 230.611 229.28 231.458C228.202 231.849 227.212 232.184 226.131 231.682C226.158 231.444 226.121 231.273 226.288 231.092C228.049 229.183 231.748 228.362 234.232 228.246C235.907 228.168 237.466 228.639 239.073 229.055C240.615 227.902 241.374 226.568 242.658 225.196C243.124 224.698 243.685 224.744 244.329 224.728C245.53 225.307 243.96 227.559 244.673 228.882C246.583 229.866 250.859 226.964 253.051 226.786L253.344 227.157C253.317 227.623 253.338 227.793 253.014 228.162C250.571 230.945 245.18 230.84 241.83 230.945C239.613 233.906 231.299 246.008 231.652 248.998C232.075 249.842 232.922 250.277 233.685 250.789C244.712 246.762 244.355 237.252 256.116 234.088C257.354 234.482 258.513 234.941 259.51 235.798C260.096 236.302 260.535 236.923 260.561 237.719C260.588 238.541 260 239.366 259.517 239.993C255.776 244.861 249.565 243.089 247.397 245.358C247.047 246.032 246.903 246.63 247.136 247.378C247.327 247.992 247.681 248.485 248.276 248.755C249.258 249.199 250.892 249.052 251.944 248.982C256.454 248.685 258.766 246.89 262.011 244.011C262.787 243.322 263.679 242.521 264.646 242.127C264.976 241.992 265.29 241.867 265.627 242.002C265.723 242.45 265.584 242.746 265.357 243.143C263.232 246.865 257.996 249.67 254.027 250.792C250.841 251.387 248.376 251.238 245.381 249.929L243.621 247.338C242.374 247.801 241.309 248.565 240.198 249.28C237.289 251.15 234.965 252.211 231.558 252.87C229.561 252.028 229.012 251.247 227.943 249.378C226.539 250.415 225.311 251.605 223.758 252.433C219.022 254.958 219.431 252.418 216.325 251.656C214.205 251.135 212.648 252.705 211 253.722C206.271 256.641 206.199 251.751 203.767 251.418C202.82 251.288 199.876 254.077 198.937 254.697C197.687 255.522 196.173 256.294 194.635 255.901C193.736 255.672 192.715 254.979 192.274 254.165C191.7 253.106 191.781 251.661 191.917 250.505C192.366 246.69 193.983 243.336 195.834 240.029C196.581 238.695 197.441 237.389 197.882 235.915L197.775 235.651L197.808 235.445C197.032 235.417 196.37 236.309 195.869 236.859C191.071 242.13 186.197 246.645 178.832 247.768C176.466 248.128 174.041 248.119 171.654 248.307C168.838 252.62 166.964 259.747 163.545 263.259C162.996 263.822 162.564 264.082 161.774 264.081C161.509 263.798 161.374 263.71 161.306 263.327C161.216 262.818 161.268 262.332 161.453 261.851C162.015 260.387 163.085 258.884 163.813 257.471C165.415 254.359 166.742 251.076 168.675 248.149C168.626 246.233 168.15 244.773 167.483 242.998C169.768 235.076 174.029 236.709 177.525 231.534C179.573 228.504 183.388 219.141 186.313 217.573C186.878 217.27 187.122 217.336 187.693 217.499C188.926 219.813 182.91 226.206 182.283 228.999C182.125 229.705 182.21 229.887 182.584 230.445C184.975 231.334 189.151 228.21 192.139 228.552C192.677 228.878 192.69 228.84 192.882 229.484C191.917 231.446 184.169 231.896 181.891 233.088C178.485 234.871 177.32 237.933 175.529 241.088C174.986 242.044 174.028 243.32 173.767 244.374C173.638 244.891 173.761 244.97 174.061 245.394C174.464 245.546 174.86 245.635 175.293 245.629C181.045 245.547 187.355 241.525 191.186 237.446C193.898 234.557 195.59 232.076 196.399 228.142C196.594 227.195 196.913 226.26 196.87 225.282C196.735 222.256 195.617 218.826 193.283 216.781C191.26 215.009 188.611 214.625 186.007 214.818C182.628 215.067 179.067 216.741 176.787 219.276C175.7 220.485 174.887 221.929 173.789 223.145C173.279 223.709 172.906 223.996 172.138 224.038C171.748 223.517 171.763 223.266 171.68 222.632C171.913 221.796 172.445 221.215 172.972 220.544C177.022 215.4 179.95 212.894 186.632 212.093ZM217.883 239.031C214.3 239.759 211.239 242.193 209.217 245.208C208.457 246.342 207.3 248.15 207.559 249.583C207.644 250.054 207.969 250.425 208.383 250.666C209.007 251.027 209.573 251.022 210.267 250.998C214.128 249.869 217.659 246.332 219.614 242.845C220.054 242.06 220.408 241.222 220.241 240.306C219.792 239.669 219.199 239.21 218.398 239.065C218.231 239.035 218.05 239.037 217.883 239.031ZM255.243 237.001C253.046 237.969 249.974 239.265 248.631 241.31L248.555 241.96C249.123 242.553 249.651 242.762 250.502 242.777C250.624 242.78 250.746 242.777 250.869 242.774C252.968 241.984 256.372 241.124 257.349 238.851C257.578 238.318 257.504 238.113 257.383 237.577C256.862 237.116 256.199 236.907 255.497 236.971C255.412 236.979 255.328 236.991 255.243 237.001ZM208.127 226.932C206.277 227.995 204.407 230.775 203.83 232.856C203.771 233.07 203.783 233.224 203.798 233.443C204.096 233.573 204.143 233.649 204.474 233.587C205.908 231.997 208.544 229.816 208.944 227.723C208.68 227.116 208.696 227.161 208.127 226.932ZM172.192 238.586C171.373 239.588 170.568 240.509 170.576 241.877C170.842 242.275 170.896 242.363 171.32 242.574C171.909 241.584 172.71 240.498 172.893 239.35L172.72 238.834L172.192 238.586Z"/>
	<path transform="scale(4.13565 4.13592)" d="M77.8966 217.05C79.794 216.913 82.1908 216.631 84.0222 217.172C85.6732 217.659 87.2678 219.039 89.0187 219.086C90.6982 219.13 91.8113 216.646 93.758 217.042L93.9728 217.48C93.4361 218.793 91.1561 219.743 89.9556 220.415C90.3312 222.786 90.3798 225.093 89.5182 227.371C88.868 229.091 87.7308 230.759 85.9981 231.521C84.9347 231.989 83.6535 232.054 82.5816 231.58C81.7367 231.206 81.0669 230.55 80.7723 229.663C79.4196 225.593 84.7287 224.172 85.811 221.788C85.7662 221.268 85.7645 221.136 85.4087 220.751C84.5507 219.822 82.9622 219.498 81.7562 219.422C76.166 219.069 69.7449 221.824 65.6059 225.552C63.3626 227.572 61.2091 230.629 61.1096 233.758C60.9986 237.25 66.3085 249.319 68.5609 251.668C68.8711 251.749 79.1319 249.009 80.5955 248.689C83.3686 244.009 86.4325 235.631 91.1631 232.75C91.9746 232.255 92.9539 231.959 93.8939 232.24C95.0754 232.593 95.5208 233.676 96.0768 234.673C94.5967 239.629 90.7332 241.443 86.9093 244.26C85.9581 244.961 84.7856 245.873 84.6066 247.081C86.2047 248.164 88.3938 246.672 90.1513 247.17C91.277 247.488 92.1839 248.278 92.7212 249.306C94.4059 252.529 89.8693 255.579 89.0858 258.416C88.9159 259.031 88.9353 259.369 89.2537 259.903C89.5124 259.999 89.8825 260.206 90.1536 260.182C93.3198 259.903 97.1963 253.491 99.241 251.195C101.736 248.393 105.512 245.311 109.392 245.132C110.478 245.082 111.557 245.574 112.626 245.732C113.795 245.904 115.036 245.772 116.182 246.064C116.676 246.19 117.022 246.377 117.397 246.72C117.713 248.742 111.148 254.061 111.314 257.356C111.339 257.854 111.488 258.172 111.889 258.458C112.29 258.745 113.157 258.864 113.639 258.752C117.713 257.801 123.675 250.039 126.09 246.688C126.002 246.523 125.909 246.361 125.819 246.197C124.838 244.42 124.149 242.819 124.826 240.763C125.092 239.956 125.43 239.539 126.191 239.169C126.974 239.07 127.693 239.174 128.337 239.672C129.568 240.625 129.133 242.791 129.384 244.176C129.679 245.802 131.041 245.959 132.195 246.744C136.845 249.904 129.602 254.041 130.27 257.325C130.697 257.789 131.026 258.067 131.713 258.056C135.551 257.995 141.232 248.806 143.858 246.15C146.43 243.55 149.444 242.007 153.118 241.954C153.648 242.153 154.183 242.354 154.695 242.595C155.468 242.96 156.128 243.469 156.384 244.32C156.671 245.274 156.515 246.48 156.01 247.33C154.27 250.254 149.358 250.868 146.342 251.67C145.297 251.947 144.156 252.27 143.598 253.281C143.379 253.677 143.46 254.386 143.589 254.8C143.788 255.435 144.07 255.791 144.651 256.11C148.237 258.077 153.076 255.863 155.971 253.557C157.464 252.368 159.483 249.755 161.306 249.269C161.516 249.213 161.655 249.379 161.832 249.487L161.887 250.231C161.09 252.444 157.85 254.729 155.889 255.966C152.884 257.862 147.718 259.174 144.245 258.34C142.024 257.806 141.199 256.739 140.062 254.836C137.375 256.714 135.336 259.173 132.002 259.966C130.703 260.275 128.943 260.357 127.785 259.573C124.357 257.251 130.568 252.284 130.082 249.999C129.939 249.331 129.637 249.029 129.084 248.659C128.247 248.54 127.895 248.54 127.162 249.06C125.965 249.909 124.957 251.438 124.005 252.554C120.32 256.872 116.485 260.448 110.802 261.704C109.478 261.106 108.628 260.002 107.333 259.381C105.145 259.298 103.244 261.106 101.357 262.043C100.431 262.503 99.452 262.803 98.4383 262.403C97.0917 261.872 96.6538 260.715 96.0942 259.494C94.7929 260.236 93.5821 261.196 92.1944 261.775C90.8712 262.328 88.5751 263.092 87.1793 262.402C86.7204 262.175 86.403 261.774 86.2495 261.29C85.31 258.328 88.7848 253.333 90.2448 250.746C89.8045 250.192 89.2351 249.417 88.549 249.165C83.0428 247.145 76.1988 263.261 73.4799 264.398C73.0997 264.557 72.9887 264.438 72.6085 264.296C70.5679 260.833 78.529 255.171 78.0573 251.846C77.7784 251.579 77.7002 251.446 77.318 251.382C74.9701 250.994 70.615 253.105 68.6523 254.411C68.9128 255.684 69.0902 257.046 68.9528 258.342C68.5529 262.111 66.2622 265.721 63.3054 268.031C60.6601 270.098 58.1587 270.536 54.9026 270.142C53.2123 268.964 52.5526 267.616 51.9659 265.689C53.8854 259.214 59.9716 256.202 65.4719 253.197C63.647 247.288 59.7373 242.211 58.6106 236.106C57.9858 232.72 59.0798 229.571 61.0096 226.78C64.7015 221.439 71.6848 218.233 77.8966 217.05ZM108.325 247.034C104.492 248.417 100.716 251.998 99.0064 255.646C98.648 256.411 98.4686 257.081 98.5273 257.938C98.9617 258.681 99.1994 258.834 100.061 259.068C100.726 259.248 101.232 259.291 101.919 259.147C105.59 257.327 110.113 253.682 111.501 249.617C111.691 249.059 111.716 248.646 111.57 248.077C111.189 247.519 110.782 247.231 110.111 247.091C109.57 246.979 108.871 246.994 108.325 247.034ZM64.3731 256.246C60.9837 257.621 55.9379 261.161 54.4605 264.574C54.1641 265.259 54.0458 265.999 54.3572 266.7C54.7335 267.548 55.4732 267.847 56.2932 268.137C60.1379 267.324 62.487 265.61 64.6321 262.276C65.4054 261.074 66.6689 259.023 66.2648 257.51C66.1789 257.188 65.8658 256.679 65.5576 256.532C65.1297 256.328 64.8453 256.265 64.3731 256.246ZM151.425 244.19C149.953 245.086 145.677 247.111 145.297 248.784C145.2 249.212 145.335 249.437 145.472 249.842C145.881 250.164 146.271 250.454 146.84 250.393C146.917 250.385 146.988 250.347 147.062 250.325C148.808 249.681 152.723 248.695 153.649 246.912C153.867 246.491 153.952 246.076 153.768 245.617C153.522 245.006 153.063 244.572 152.499 244.267L151.425 244.19ZM86.0316 224.665C84.9866 225.421 83.3362 226.764 83.0813 228.099C83.0112 228.467 83.0143 228.777 83.2424 229.073C83.4885 229.393 83.8031 229.476 84.1736 229.588C85.2488 228.733 86.7937 227.358 87.0176 225.914C87.1044 225.353 86.9873 225.266 86.6777 224.834L86.0316 224.665ZM92.431 235.418C91.1641 236.537 89.1729 238.34 88.8464 240.049C88.8156 240.21 88.837 240.256 88.8668 240.397C89.2618 240.413 89.3812 240.45 89.7459 240.277C90.8639 239.53 93.3135 237.956 93.5155 236.498C93.5651 236.141 93.4198 236.037 93.2474 235.739C92.98 235.619 92.7187 235.478 92.431 235.418Z"/>
	<path transform="scale(4.13565 4.13592)" d="M30.9468 86.2742C31.6253 86.3037 32.2719 86.4003 32.8832 86.7175C33.778 87.1816 34.247 87.9672 34.4225 88.9397C35.0652 92.5014 34.5306 100.72 34.5097 104.634L34.4978 136.96C34.4915 139.542 33.989 145.809 34.8222 148.065C34.9417 148.388 35.395 148.696 35.7065 148.81C36.3673 149.053 37.8356 149.162 38.4756 148.805C39.4253 148.275 39.5608 146.74 39.6735 145.779C40.2622 140.761 39.8716 135.261 39.8878 130.191L39.8854 97.8363C39.8787 95.6773 39.4058 89.352 40.0433 87.6196C40.2553 87.0433 40.6633 86.7276 41.2472 86.5564C42.0232 86.3288 43.0428 86.4926 43.7477 86.8682C44.3951 87.2131 44.6542 87.5829 44.7889 88.2924C45.1602 90.2491 44.7252 95.598 44.7293 98.0135L44.7426 128.465C44.7369 133.032 44.0847 144.157 45.2434 148.003C45.7061 148.504 46.3794 149.163 47.0395 149.411C47.6229 149.63 48.1455 149.668 48.6889 149.325C49.8494 148.593 50.3381 146.286 50.4857 145.026C50.6844 143.33 50.4786 141.545 50.4676 139.839L50.4008 128.28C50.3105 119.825 50.5539 111.363 50.4057 102.912C50.3449 99.4451 49.8046 90.5232 50.6323 87.7814C50.8792 86.9637 51.2189 86.5197 51.9598 86.1222C52.2644 86.1361 52.4704 86.1672 52.7286 86.3436C53.5186 86.8833 54.0423 87.4461 54.1818 88.4104C54.5648 91.0572 54.3054 94.0297 54.4799 96.736C54.7358 100.705 55.229 104.658 55.4605 108.625C55.7004 112.737 55.7168 116.868 55.9113 120.985C56.2614 128.396 57.3475 135.952 57.3125 143.357C57.3034 145.276 57.0359 147.168 56.375 148.976C54.1572 155.041 48.6422 158.648 44.9525 163.682C43.3185 165.911 42.1458 168.422 41.6405 171.148C40.699 176.226 41.1913 181.961 41.2136 187.126C41.2526 196.186 40.8575 205.768 42.2132 214.744C42.8209 222.017 42.716 229.381 43.1412 236.675L44.5066 260.004C44.6232 262.353 44.9187 264.704 44.9491 267.054C44.9703 268.7 44.5175 270.087 43.3337 271.26C41.6811 272.899 38.91 273.509 36.6544 273.457C33.4294 273.383 31.0053 271.984 28.832 269.713C28.4573 260.946 29.7439 252.537 30.2409 243.843C30.4824 239.619 30.3681 235.383 30.6194 231.166L32.3925 199.085C32.6466 194.369 33.0706 189.705 33.1847 184.976C33.3482 178.198 33.2936 170.14 29.2635 164.362C27.6404 162.035 25.595 160.148 23.6501 158.101C21.0894 155.405 18.5497 152.564 17.5544 148.883C16.2487 144.054 17.5828 129.759 17.872 123.984C18.3015 115.408 18.754 106.827 18.987 98.2443C19.0606 95.532 18.9726 88.4081 20.8803 86.6011C21.4054 86.4271 21.7145 86.3044 22.2493 86.5926C22.9564 86.9736 23.1371 87.3954 23.2442 88.1568C23.8409 92.3997 23.3187 98.5287 23.3158 102.99L23.3531 134.011C23.3394 137.302 22.6407 144.11 23.6735 147.051C24.038 148.089 24.6397 148.764 25.6323 149.258C26.3144 149.332 26.8657 149.327 27.5094 149.054C28.3773 148.686 28.5837 147.931 28.7382 147.078C29.5546 142.566 29.0312 135.31 29.0309 130.574Q29.1681 114.239 29.0032 97.905C28.9839 95.9032 28.4467 89.0876 29.0685 87.6701C29.4373 86.8294 30.1569 86.5929 30.9468 86.2742Z"/>
	<path transform="scale(4.13565 4.13592)" d="M277.045 86.5886C281.086 86.1108 285.023 86.8399 288.577 88.8556C295.562 92.818 300.746 100.189 302.824 107.87L302.867 108.029C306.817 123.023 301.231 143.379 292.524 155.851C290.66 158.522 285.221 164.088 284.68 166.74C283.943 170.363 284.58 175.066 284.649 178.813C284.774 185.656 284.779 192.482 284.972 199.326C285.209 207.755 285.055 216.191 285.251 224.619C285.533 236.764 286.175 248.883 286.836 261.01C286.97 263.476 287.828 268.358 286.509 270.415C285.159 272.519 282.15 273.017 279.88 273.407C279.561 273.46 279.271 273.493 278.946 273.476C275.586 273.308 273.306 272.25 271.032 269.79C270.64 262.364 271.837 255.36 272.309 248.007C273.3 232.559 273.97 217.097 274.516 201.628C274.909 190.52 276.042 179.375 274.156 168.303C273.51 164.512 270.209 161.932 267.987 158.997C266.691 157.286 265.526 155.431 264.411 153.598Q262.663 150.713 261.198 147.675Q259.733 144.636 258.565 141.472Q257.396 138.308 256.534 135.047Q255.672 131.785 255.125 128.457C253.447 117.72 253.979 105.902 260.619 96.8644C264.883 91.0595 269.823 87.6864 277.045 86.5886ZM288.456 95.6441C294.039 104.412 296.574 108.139 296.555 118.952C296.549 122.644 296.407 126.255 295.611 129.87C294.421 135.271 292.511 140.374 290.022 145.309C288.691 147.949 287.146 150.496 285.985 153.216L288.288 151.422C295.992 143.423 300.02 128.384 299.815 117.513C299.679 110.347 297.32 103.157 292.048 98.1015C291.091 97.1841 289.775 95.9763 288.456 95.6441Z"/>
	<path transform="scale(4.13565 4.13592)" d="M146.432 31.3602C158.929 30.5039 172.425 32.1263 183.189 38.9611C191.508 44.2431 198.033 52.6856 201.307 61.9716C202.654 65.7925 203.448 69.8655 204.321 73.8176C206.789 74.3335 209.492 74.2268 212.008 74.5286C220.579 75.5566 229.636 77.9746 236.325 83.6704C242.87 89.2424 245.937 96.2974 246.621 104.744C247.32 113.375 246.005 123.036 240.165 129.828C234.221 136.741 224.492 139.977 215.6 140.152C212.681 140.21 209.787 139.669 206.865 139.871C205.162 143.23 204.236 148.286 203.706 152.015C203.338 154.601 203.319 161.672 202.115 163.551L201.71 163.549C200.794 162.357 199.689 147.276 199.871 144.876C199.994 143.241 200.878 139.484 199.994 138.132C198.639 137.892 195.883 139.548 194.428 139.998C190.367 141.254 186.625 141.615 182.41 141.668C184.987 140.575 187.618 139.52 190.069 138.162C197.324 134.14 204.546 126.387 207.429 118.544C208.34 116.063 208.495 113.276 209.229 110.718L209.353 111.113C210.745 115.588 210.905 121.82 209.425 126.273C208.783 128.205 207.751 130.018 206.808 131.816C213.578 132.554 222.045 132.02 227.997 128.387C232.766 125.477 235.679 121.059 236.967 115.684C238.588 108.922 237.856 101.388 234.118 95.372C227.703 85.0486 213.864 83.4608 202.873 83.7222C200.506 83.7785 197.53 84.6702 195.272 84.1464C194.976 82.2966 195.074 80.3228 194.972 78.4451C194.708 73.5697 193.782 69.3097 192.019 64.7386C188.446 55.4705 181.943 48.5005 172.841 44.4896C161.327 39.4159 145.81 39.144 134.082 43.7188C124.148 47.5938 116.897 55.0144 112.638 64.6904C111.003 68.4597 109.783 72.5496 109.33 76.6397C108.199 86.8661 109.602 96.1018 116.141 104.235C110.113 99.9391 106.609 93.0768 104.936 85.9958C104.52 84.2338 104.405 81.633 103.402 80.1228C103.165 79.7655 102.896 79.6509 102.472 79.5883C101.503 79.4451 100.232 79.8399 99.2839 80.0459C94.1446 81.1626 89.4708 83.0208 85.4246 86.4593C80.6288 90.5347 78.6077 95.6067 78.1153 101.742C77.6562 107.463 78.6671 113.262 82.5426 117.733C88.9101 125.078 99.8652 126.597 108.958 127.294C112.142 134.158 112.894 141.485 113.688 148.912C113.891 150.814 112.834 154.604 113.824 156.095C114.252 156.258 124.735 153.918 126.5 153.625C133.471 152.467 140.638 151.766 147.701 151.891C162.001 152.144 174.45 154.474 186.422 162.602C188.875 164.267 191.39 165.994 193.456 168.134C180.746 161.463 155.524 159.417 141.088 160.232C133.961 160.635 126.215 161.863 119.327 163.662C115.966 164.54 112.716 165.9 109.575 167.368C107.426 168.373 105.305 169.526 103.011 170.16L102.873 170.197C103.279 166.485 104.072 162.814 104.541 159.107C105.389 152.408 105.231 144.547 103.557 137.984C103.403 137.382 103.23 136.571 102.707 136.199C100.011 134.278 95.6889 134.063 92.5283 133.134C89.2899 132.182 85.8084 130.798 82.9113 129.057C76.9058 125.449 72.2055 119.69 70.5367 112.835C68.5877 104.83 69.4617 94.4325 73.8058 87.3032C78.1902 80.1077 85.3506 75.3792 93.3969 73.1732C96.8317 72.2316 100.422 71.709 103.893 70.8701C104.766 68.7452 104.87 66.1289 105.384 63.8699C106.87 57.3447 110.314 51.0768 114.744 46.0836C122.579 37.2521 134.741 32.0431 146.432 31.3602Z"/>
</svg>
